<svg xmlns="http://www.w3.org/2000/svg" width="160" height="160" viewBox="0 0 160 160">
  <rect width="160" height="160" fill="#1a3a5c" rx="6"/>
  <defs>
    <pattern id="dg7" x="0" y="0" width="16" height="16" patternUnits="userSpaceOnUse">
      <circle cx="1" cy="1" r="0.8" fill="white" opacity="0.12"/>
    </pattern>
  </defs>
  <rect width="160" height="160" fill="url(#dg7)" rx="6"/>
  <circle cx="80" cy="68" r="20" fill="#2e7ab8" opacity="0.25"/>
  <circle cx="80" cy="68" r="20" fill="none" stroke="#4a9fd4" stroke-width="1.5" opacity="0.8"/>
  <text x="80" y="65" text-anchor="middle" font-family="Arial,sans-serif" font-size="9" font-weight="700" fill="white" opacity="0.95">AI</text>
  <text x="80" y="77" text-anchor="middle" font-family="Arial,sans-serif" font-size="6.5" fill="white" opacity="0.6">tools</text>
  <circle cx="30" cy="34" r="12" fill="none" stroke="white" stroke-width="1" opacity="0.45"/>
  <text x="30" y="38" text-anchor="middle" font-family="Arial,sans-serif" font-size="6.5" fill="white" opacity="0.7">Visibility</text>
  <circle cx="130" cy="34" r="12" fill="none" stroke="white" stroke-width="1" opacity="0.45"/>
  <text x="130" y="38" text-anchor="middle" font-family="Arial,sans-serif" font-size="6.5" fill="white" opacity="0.7">Govern.</text>
  <circle cx="18" cy="88" r="11" fill="none" stroke="white" stroke-width="1" opacity="0.35"/>
  <text x="18" y="92" text-anchor="middle" font-family="Arial,sans-serif" font-size="6.5" fill="white" opacity="0.55">Data</text>
  <circle cx="142" cy="88" r="11" fill="none" stroke="white" stroke-width="1" opacity="0.35"/>
  <text x="142" y="92" text-anchor="middle" font-family="Arial,sans-serif" font-size="6.5" fill="white" opacity="0.55">Risk</text>
  <circle cx="80" cy="110" r="11" fill="none" stroke="white" stroke-width="1" opacity="0.3"/>
  <text x="80" y="114" text-anchor="middle" font-family="Arial,sans-serif" font-size="6.5" fill="white" opacity="0.5">Readiness</text>
  <line x1="62" y1="53" x2="41" y2="43" stroke="white" stroke-width="0.8" opacity="0.28"/>
  <line x1="98" y1="53" x2="119" y2="43" stroke="white" stroke-width="0.8" opacity="0.28"/>
  <line x1="62" y1="80" x2="29" y2="77" stroke="white" stroke-width="0.8" opacity="0.2"/>
  <line x1="98" y1="80" x2="131" y2="77" stroke="white" stroke-width="0.8" opacity="0.2"/>
  <line x1="80" y1="88" x2="80" y2="99" stroke="white" stroke-width="0.8" opacity="0.18"/>
  <line x1="20" y1="128" x2="140" y2="128" stroke="#4a9fd4" stroke-width="1" opacity="0.3"/>
  <text x="80" y="143" text-anchor="middle" font-family="Georgia,serif" font-size="8.5" font-weight="700" fill="white" opacity="0.6">AI Readiness</text>
  <text x="80" y="155" text-anchor="middle" font-family="Arial,sans-serif" font-size="7" fill="white" opacity="0.35" letter-spacing="0.5">Assessment</text>
</svg>
