<svg xmlns="http://www.w3.org/2000/svg" width="160" height="160" viewBox="0 0 160 160">
  <rect width="160" height="160" fill="#1a3a5c" rx="6"/>
  <ellipse cx="130" cy="28" rx="50" ry="32" fill="none" stroke="white" stroke-width="0.6" opacity="0.07"/>
  <ellipse cx="130" cy="28" rx="34" ry="22" fill="none" stroke="white" stroke-width="0.6" opacity="0.1"/>
  <rect x="61" y="14" width="38" height="20" rx="3" fill="#2e7ab8" opacity="0.35"/>
  <rect x="61" y="14" width="38" height="20" rx="3" fill="none" stroke="#4a9fd4" stroke-width="1.2" opacity="0.8"/>
  <text x="80" y="28" text-anchor="middle" font-family="Arial,sans-serif" font-size="7.5" font-weight="700" fill="white">CTO / CIO</text>
  <rect x="14" y="52" width="36" height="18" rx="3" fill="none" stroke="white" stroke-width="0.9" opacity="0.5"/>
  <text x="32" y="64" text-anchor="middle" font-family="Arial,sans-serif" font-size="6.5" fill="white" opacity="0.7">Engineering</text>
  <rect x="62" y="52" width="36" height="18" rx="3" fill="none" stroke="white" stroke-width="0.9" opacity="0.5"/>
  <text x="80" y="64" text-anchor="middle" font-family="Arial,sans-serif" font-size="6.5" fill="white" opacity="0.7">Security</text>
  <rect x="110" y="52" width="36" height="18" rx="3" fill="none" stroke="white" stroke-width="0.9" opacity="0.5"/>
  <text x="128" y="64" text-anchor="middle" font-family="Arial,sans-serif" font-size="6.5" fill="white" opacity="0.7">Data / BI</text>
  <line x1="80" y1="34" x2="32" y2="52" stroke="white" stroke-width="0.8" opacity="0.28"/>
  <line x1="80" y1="34" x2="80" y2="52" stroke="white" stroke-width="0.8" opacity="0.28"/>
  <line x1="80" y1="34" x2="128" y2="52" stroke="white" stroke-width="0.8" opacity="0.28"/>
  <circle cx="20" cy="86" r="4" fill="none" stroke="white" stroke-width="0.8" opacity="0.35"/>
  <circle cx="32" cy="86" r="4" fill="none" stroke="white" stroke-width="0.8" opacity="0.35"/>
  <circle cx="44" cy="86" r="4" fill="none" stroke="white" stroke-width="0.8" opacity="0.35"/>
  <circle cx="68" cy="86" r="4" fill="none" stroke="white" stroke-width="0.8" opacity="0.35"/>
  <circle cx="80" cy="86" r="4" fill="none" stroke="white" stroke-width="0.8" opacity="0.35"/>
  <circle cx="116" cy="86" r="4" fill="none" stroke="white" stroke-width="0.8" opacity="0.35"/>
  <circle cx="128" cy="86" r="4" fill="none" stroke="white" stroke-width="0.8" opacity="0.35"/>
  <circle cx="140" cy="86" r="4" fill="none" stroke="white" stroke-width="0.8" opacity="0.35"/>
  <line x1="20" y1="82" x2="32" y2="70" stroke="white" stroke-width="0.6" opacity="0.2"/>
  <line x1="32" y1="82" x2="32" y2="70" stroke="white" stroke-width="0.6" opacity="0.2"/>
  <line x1="44" y1="82" x2="32" y2="70" stroke="white" stroke-width="0.6" opacity="0.2"/>
  <line x1="68" y1="82" x2="80" y2="70" stroke="white" stroke-width="0.6" opacity="0.2"/>
  <line x1="80" y1="82" x2="80" y2="70" stroke="white" stroke-width="0.6" opacity="0.2"/>
  <line x1="116" y1="82" x2="128" y2="70" stroke="white" stroke-width="0.6" opacity="0.2"/>
  <line x1="128" y1="82" x2="128" y2="70" stroke="white" stroke-width="0.6" opacity="0.2"/>
  <line x1="140" y1="82" x2="128" y2="70" stroke="white" stroke-width="0.6" opacity="0.2"/>
  <line x1="20" y1="128" x2="140" y2="128" stroke="#4a9fd4" stroke-width="1" opacity="0.3"/>
  <text x="80" y="143" text-anchor="middle" font-family="Georgia,serif" font-size="8.5" font-weight="700" fill="white" opacity="0.6">Engineering Org</text>
  <text x="80" y="155" text-anchor="middle" font-family="Arial,sans-serif" font-size="7" fill="white" opacity="0.35" letter-spacing="0.5">Assessment</text>
</svg>
