<svg xmlns="http://www.w3.org/2000/svg" width="160" height="160" viewBox="0 0 160 160">
  <rect width="160" height="160" fill="#1a3a5c" rx="6"/>
  <ellipse cx="28" cy="28" rx="44" ry="30" fill="none" stroke="white" stroke-width="0.6" opacity="0.07"/>
  <ellipse cx="28" cy="28" rx="28" ry="20" fill="none" stroke="white" stroke-width="0.6" opacity="0.1"/>
  <rect x="22" y="16" width="116" height="96" rx="5" fill="none" stroke="white" stroke-width="1" opacity="0.3"/>
  <rect x="22" y="16" width="116" height="22" rx="5" fill="#2e7ab8" opacity="0.28"/>
  <rect x="22" y="28" width="116" height="10" rx="0" fill="#2e7ab8" opacity="0.28"/>
  <text x="80" y="31" text-anchor="middle" font-family="Arial,sans-serif" font-size="7.5" font-weight="700" fill="white" opacity="0.85">Fractional CIO · CTO</text>
  <rect x="30" y="44" width="22" height="18" rx="2" fill="#2e7ab8" opacity="0.55"/>
  <text x="41" y="56" text-anchor="middle" font-family="Arial,sans-serif" font-size="6.5" fill="white" opacity="0.95">Mon</text>
  <rect x="56" y="44" width="22" height="18" rx="2" fill="none" stroke="white" stroke-width="0.7" opacity="0.28"/>
  <text x="67" y="56" text-anchor="middle" font-family="Arial,sans-serif" font-size="6.5" fill="white" opacity="0.38">Tue</text>
  <rect x="82" y="44" width="22" height="18" rx="2" fill="#2e7ab8" opacity="0.55"/>
  <text x="93" y="56" text-anchor="middle" font-family="Arial,sans-serif" font-size="6.5" fill="white" opacity="0.95">Wed</text>
  <rect x="108" y="44" width="22" height="18" rx="2" fill="none" stroke="white" stroke-width="0.7" opacity="0.28"/>
  <text x="119" y="56" text-anchor="middle" font-family="Arial,sans-serif" font-size="6.5" fill="white" opacity="0.38">Thu</text>
  <rect x="30" y="66" width="108" height="0.8" fill="white" opacity="0.1"/>
  <circle cx="36" cy="80" r="3" fill="#4a9fd4" opacity="0.85"/>
  <rect x="44" y="76" width="88" height="7" rx="2" fill="white" opacity="0.12"/>
  <circle cx="36" cy="93" r="3" fill="#4a9fd4" opacity="0.6"/>
  <rect x="44" y="89" width="66" height="7" rx="2" fill="white" opacity="0.08"/>
  <circle cx="36" cy="106" r="3" fill="white" opacity="0.3"/>
  <rect x="44" y="102" width="76" height="7" rx="2" fill="white" opacity="0.06"/>
  <line x1="20" y1="128" x2="140" y2="128" stroke="#4a9fd4" stroke-width="1" opacity="0.3"/>
  <text x="80" y="143" text-anchor="middle" font-family="Georgia,serif" font-size="8.5" font-weight="700" fill="white" opacity="0.6">Fractional CIO</text>
  <text x="80" y="155" text-anchor="middle" font-family="Arial,sans-serif" font-size="7" fill="white" opacity="0.35" letter-spacing="0.5">and CTO Services</text>
</svg>
