<svg xmlns="http://www.w3.org/2000/svg" width="400" height="200" viewBox="0 0 400 200">
  <rect width="400" height="200" fill="#1a3a5c"/>
  <circle cx="200" cy="70" r="10" fill="none" stroke="#4a9fd4" stroke-width="1.2" opacity="0.7"/>
  <circle cx="200" cy="70" r="4" fill="#4a9fd4" opacity="0.6"/>
  <circle cx="110" cy="110" r="7" fill="none" stroke="white" stroke-width="1" opacity="0.45"/>
  <circle cx="110" cy="110" r="3" fill="white" opacity="0.4"/>
  <circle cx="290" cy="110" r="7" fill="none" stroke="white" stroke-width="1" opacity="0.45"/>
  <circle cx="290" cy="110" r="3" fill="white" opacity="0.4"/>
  <circle cx="150" cy="148" r="5" fill="none" stroke="white" stroke-width="1" opacity="0.3"/>
  <circle cx="250" cy="148" r="5" fill="none" stroke="white" stroke-width="1" opacity="0.3"/>
  <circle cx="60" cy="60" r="5" fill="none" stroke="white" stroke-width="0.8" opacity="0.25"/>
  <circle cx="340" cy="60" r="5" fill="none" stroke="white" stroke-width="0.8" opacity="0.25"/>
  <circle cx="200" cy="160" r="5" fill="none" stroke="white" stroke-width="0.8" opacity="0.22"/>
  <line x1="200" y1="80" x2="113" y2="103" stroke="white" stroke-width="0.8" opacity="0.25"/>
  <line x1="200" y1="80" x2="287" y2="103" stroke="white" stroke-width="0.8" opacity="0.25"/>
  <line x1="113" y1="117" x2="152" y2="143" stroke="white" stroke-width="0.7" opacity="0.18"/>
  <line x1="287" y1="117" x2="248" y2="143" stroke="white" stroke-width="0.7" opacity="0.18"/>
  <line x1="155" y1="153" x2="200" y2="155" stroke="white" stroke-width="0.7" opacity="0.15"/>
  <line x1="245" y1="153" x2="200" y2="155" stroke="white" stroke-width="0.7" opacity="0.15"/>
  <line x1="65" y1="63" x2="113" y2="103" stroke="white" stroke-width="0.6" opacity="0.14"/>
  <line x1="335" y1="63" x2="287" y2="103" stroke="white" stroke-width="0.6" opacity="0.14"/>
</svg>
